Coordinates
version=1
nRows=41
nColumns=38
inDegrees=no

Units are S.I. units (second, meters, Newtons, ...)
If the header above contains a line with 'inDegrees', this indicates whether rotational values are in degrees (yes) or radians (no).

endheader
time	pelvis_tilt	pelvis_list	pelvis_rotation	pelvis_tx	pelvis_ty	pelvis_tz	hip_flexion_r	hip_adduction_r	hip_rotation_r	knee_angle_r	ankle_angle_r	subtalar_angle_r	mtp_angle_r	hip_flexion_l	hip_adduction_l	hip_rotation_l	knee_angle_l	ankle_angle_l	subtalar_angle_l	mtp_angle_l	lumbar_extension	lumbar_bending	lumbar_rotation	arm_flex_r	arm_add_r	arm_rot_r	elbow_flex_r	pro_sup_r	wrist_flex_r	wrist_dev_r	arm_flex_l	arm_add_l	arm_rot_l	elbow_flex_l	pro_sup_l	wrist_flex_l	wrist_dev_l
1.15	2.97201	1.41877	-1.54091	0.798075	0.484919	0.969772	-0.246581	0.0451036	-0.23271	0.0781101	0.0557872	0	0	0.36182	-0.185434	-0.249471	0.961037	0.0875572	0	0	-0.277744	0.059555	0.195155	0.132007	-0.370187	1.03082	0.407604	0.64476	0	0	0.106198	-0.155719	0.133516	0.347667	1.5708	0	0
1.16	3.04164	1.4112	-1.61363	0.799378	0.491471	0.970713	-0.264498	0.0338918	-0.230503	0.0739509	0.0586143	0	0	0.35247	-0.170067	-0.257079	0.910477	0.0798986	0	0	-0.289889	0.0452734	0.195064	0.139971	-0.364919	1.03605	0.401843	0.64079	0	0	0.114385	-0.157972	0.134634	0.341946	1.5708	0	0
1.17	3.01858	1.41672	-1.59151	0.799585	0.499172	0.968939	-0.270017	0.0380188	-0.226788	0.0693103	0.0626765	0	0	0.354204	-0.170559	-0.266981	0.858539	0.0858478	0	0	-0.283698	0.049921	0.19552	0.141727	-0.367475	1.04289	0.404215	0.63685	0	0	0.115465	-0.156765	0.135941	0.338121	1.5708	0	0
1.18	3.08246	1.40944	-1.65958	0.800882	0.506008	0.969425	-0.288591	0.0273898	-0.22084	0.0628938	0.0656632	0	0	0.341855	-0.154925	-0.275005	0.802023	0.0803834	0	0	-0.294242	0.0358013	0.196374	0.148506	-0.36228	1.04615	0.398648	0.635052	0	0	0.121299	-0.159598	0.135848	0.33574	1.5708	0	0
1.19	3.06349	1.41447	-1.64232	0.80107	0.514014	0.967385	-0.29651	0.0309535	-0.214276	0.0558582	0.0716297	0	0	0.338445	-0.153868	-0.286784	0.7424	0.0866543	0	0	-0.287969	0.0396472	0.197556	0.14883	-0.364264	1.04929	0.400544	0.634293	0	0	0.120653	-0.159089	0.136916	0.334021	1.5708	0	0
1.2	3.11782	1.40618	-1.70126	0.802308	0.521192	0.967624	-0.317717	0.0211437	-0.207253	0.0470407	0.0748894	0	0	0.3215	-0.138046	-0.294389	0.680788	0.0808746	0	0	-0.298385	0.026359	0.199026	0.153869	-0.359486	1.04956	0.395847	0.635186	0	0	0.126418	-0.161629	0.136241	0.329727	1.5708	0	0
1.21	3.12715	1.40409	-1.71407	0.80297	0.529017	0.966573	-0.334042	0.0189182	-0.200018	0.0376131	0.0790876	0	0	0.3082	-0.130018	-0.303941	0.616604	0.0783567	0	0	-0.300728	0.0227938	0.200784	0.155486	-0.358881	1.05014	0.396076	0.636364	0	0	0.128764	-0.162161	0.134039	0.325954	1.5708	0	0
1.22	3.09633	1.40903	-1.68537	0.802948	0.5375	0.964204	-0.344529	0.0237659	-0.192627	0.028148	0.0843483	0	0	0.299532	-0.129266	-0.316419	0.549853	0.0781947	0	0	-0.294341	0.0290702	0.202518	0.153961	-0.362196	1.05154	0.400252	0.635985	0	0	0.127279	-0.160673	0.132534	0.322384	1.5708	0	0
1.23	3.09442	1.4084	-1.68616	0.803341	0.545582	0.962825	-0.359784	0.0228524	-0.186188	0.0190932	0.0884033	0	0	0.285664	-0.121493	-0.32403	0.482793	0.0708148	0	0	-0.295129	0.0281366	0.203603	0.154929	-0.362392	1.0526	0.401466	0.635053	0	0	0.127724	-0.16099	0.131503	0.319454	1.5708	0	0
1.24	3.08944	1.40924	-1.6825	0.803556	0.553804	0.961233	-0.373124	0.0226463	-0.180978	0.0114166	0.093043	0	0	0.273062	-0.113295	-0.327922	0.416064	0.0647196	0	0	-0.294134	0.028239	0.203653	0.155523	-0.36228	1.05408	0.402055	0.634814	0	0	0.127626	-0.161249	0.131367	0.316447	1.5708	0	0
1.25	3.08421	1.41094	-1.67815	0.803621	0.56222	0.959522	-0.384716	0.0220942	-0.176892	0.00574426	0.0983567	0	0	0.260164	-0.104515	-0.330102	0.348866	0.0570439	0	0	-0.291889	0.0287278	0.2032	0.156003	-0.362279	1.05746	0.402506	0.634594	0	0	0.126591	-0.161313	0.129788	0.314437	1.5708	0	0
1.26	3.07813	1.41277	-1.67268	0.803531	0.570841	0.957765	-0.395251	0.0212614	-0.174156	0.00224761	0.10409	0	0	0.245975	-0.0952193	-0.331619	0.280945	0.0473259	0	0	-0.289149	0.0295944	0.202531	0.156167	-0.362154	1.06202	0.402275	0.632837	0	0	0.124694	-0.16088	0.125814	0.313549	1.5708	0	0
1.27	3.06912	1.41522	-1.66372	0.803321	0.579663	0.95585	-0.404929	0.0209976	-0.17251	5.25674e-08	0.11021	0	0	0.231034	-0.0852063	-0.326597	0.212824	0.0359618	0	0	-0.285365	0.0311478	0.201447	0.156051	-0.362062	1.06791	0.401671	0.630627	0	0	0.122367	-0.160059	0.119848	0.312818	1.5708	0	0
1.28	3.06045	1.41765	-1.65423	0.803028	0.588561	0.953898	-0.414152	0.020909	-0.172363	0	0.11739	0	0	0.214392	-0.0747173	-0.311167	0.145256	0.0201217	0	0	-0.281469	0.0326019	0.199827	0.155409	-0.361471	1.07173	0.400822	0.626448	0	0	0.120982	-0.159329	0.115751	0.309292	1.5708	0	0
1.29	3.05223	1.41939	-1.6443	0.802586	0.597627	0.951959	-0.423717	0.0208686	-0.173351	0	0.124338	0	0	0.197115	-0.0648742	-0.295724	0.0830809	0.00775067	0	0	-0.277994	0.0339976	0.197771	0.153749	-0.360237	1.07175	0.39899	0.622455	0	0	0.119943	-0.158684	0.113346	0.305045	1.5708	0	0
1.3	3.04533	1.42014	-1.63545	0.802071	0.606901	0.95009	-0.433708	0.0204695	-0.175203	0	0.131389	0	0	0.181284	-0.0561174	-0.28787	0.0310783	0.00117559	0	0	-0.275276	0.0350428	0.195621	0.151468	-0.358981	1.07192	0.397051	0.622196	0	0	0.119243	-0.158025	0.11026	0.300531	1.5708	0	0
1.31	3.03921	1.42032	-1.6267	0.801529	0.616225	0.948317	-0.442784	0.0199757	-0.179487	0.00250788	0.139406	0	0	0.169096	-0.0494293	-0.285514	0	-0.00278191	0	0	-0.273275	0.0357858	0.193205	0.148808	-0.357841	1.07245	0.395887	0.622752	0	0	0.118633	-0.158132	0.110607	0.297002	1.5708	0	0
1.32	3.04637	1.4175	-1.62896	0.800999	0.625089	0.946649	-0.451381	0.0227217	-0.178093	0.0116249	0.14302	0	0	0.171715	-0.0444819	-0.291969	0	-0.000211298	0	0	-0.274838	0.0339593	0.18994	0.146045	-0.356592	1.07298	0.39581	0.623551	0	0	0.119724	-0.158724	0.111904	0.293871	1.5708	0	0
1.33	3.04403	1.41615	-1.62395	0.800447	0.63454	0.945105	-0.458925	0.0210863	-0.186122	0.0216984	0.150429	0	0	0.169575	-0.041464	-0.302994	0	0.00315504	0	0	-0.274414	0.0335707	0.188069	0.142369	-0.355294	1.07149	0.395465	0.624199	0	0	0.119808	-0.159173	0.112722	0.290263	1.5708	0	0
1.34	3.0433	1.41483	-1.62201	0.799956	0.644313	0.943682	-0.464795	0.0179565	-0.195276	0.0350331	0.158834	0	0	0.164531	-0.0378039	-0.312704	0	0.00382491	0	0	-0.273606	0.0326309	0.187475	0.138369	-0.35365	1.06943	0.393821	0.625135	0	0	0.119108	-0.159655	0.113412	0.286726	1.5708	0	0
1.35	3.0446	1.41296	-1.6231	0.79953	0.654349	0.942475	-0.469839	0.0135136	-0.205555	0.0511394	0.16758	0	0	0.156088	-0.0335777	-0.318176	0	-0.00120837	0	0	-0.273172	0.0309715	0.187669	0.134179	-0.35158	1.06708	0.391386	0.626201	0	0	0.117603	-0.160322	0.113943	0.28379	1.5708	0	0
1.36	3.03204	1.41232	-1.61249	0.798996	0.664988	0.941357	-0.474963	0.0039561	-0.225458	0.0671093	0.181284	0	0	0.146032	-0.0323003	-0.323275	0	-0.00597676	0	0	-0.270867	0.0317435	0.189353	0.129093	-0.350261	1.06477	0.389386	0.627168	0	0	0.114102	-0.160604	0.113543	0.281293	1.5708	0	0
1.37	3.03215	1.40966	-1.61273	0.798413	0.675458	0.940273	-0.478458	-0.00242564	-0.238631	0.0886984	0.190529	0	0	0.144173	-0.031062	-0.331203	0.0207057	-0.00984669	0	0	-0.270454	0.0303333	0.190554	0.123395	-0.349202	1.0623	0.38812	0.628348	0	0	0.11062	-0.161093	0.113369	0.280274	1.5708	0	0
1.38	3.0385	1.40667	-1.62014	0.797748	0.68615	0.939374	-0.481208	-0.0112116	-0.251265	0.11262	0.19771	0	0	0.140941	-0.0291957	-0.340188	0.0394883	-0.018781	0	0	-0.270056	0.0276988	0.192482	0.117038	-0.348182	1.05826	0.386923	0.629481	0	0	0.105938	-0.16172	0.112935	0.280156	1.5708	0	0
1.39	3.05343	1.40277	-1.63656	0.796984	0.69694	0.938802	-0.483494	-0.0228591	-0.263698	0.139222	0.203483	0	0	0.134899	-0.0255944	-0.347119	0.0524227	-0.0388924	0	0	-0.270619	0.0232904	0.194596	0.11045	-0.347004	1.05273	0.385743	0.630629	0	0	0.100922	-0.162514	0.112188	0.281115	1.5708	0	0
1.4	3.06937	1.39911	-1.654	0.796166	0.707848	0.938396	-0.483945	-0.0356333	-0.275709	0.168803	0.207804	0	0	0.129074	-0.0218576	-0.352574	0.0630997	-0.0692261	0	0	-0.270735	0.0184807	0.197113	0.102804	-0.346133	1.04508	0.385484	0.631808	0	0	0.0959829	-0.163259	0.110913	0.282137	1.5708	0	0
1.41	3.08998	1.39619	-1.67587	0.795163	0.718787	0.938148	-0.48154	-0.050233	-0.287088	0.201836	0.210298	0	0	0.12502	-0.0180828	-0.357915	0.0755916	-0.10268	0	0	-0.270123	0.0128954	0.199556	0.0947134	-0.34541	1.03642	0.385413	0.634101	0	0	0.0909463	-0.163888	0.109432	0.283822	1.5708	0	0
1.42	3.11718	1.39394	-1.7035	0.793904	0.729732	0.938089	-0.476493	-0.066633	-0.297598	0.237737	0.210034	0	0	0.124089	-0.0140743	-0.363473	0.0941915	-0.127702	0	0	-0.26875	0.00630857	0.201315	0.0864624	-0.34463	1.02626	0.385583	0.636886	0	0	0.0856772	-0.164454	0.108326	0.286543	1.5708	0	0
1.43	-3.13057	1.39154	-1.73784	0.792366	0.740687	0.93831	-0.469711	-0.0848324	-0.307763	0.276186	0.205929	0	0	0.126139	-0.00882835	-0.368139	0.120054	-0.135923	0	0	-0.267366	-0.00161498	0.201912	0.0782647	-0.343438	1.01643	0.38462	0.640916	0	0	0.0806528	-0.165027	0.108133	0.290146	1.5708	0	0
1.44	-3.08775	1.38888	-1.77779	0.79062	0.751734	0.938829	-0.461192	-0.104439	-0.317572	0.317399	0.196582	0	0	0.130252	-0.00197008	-0.369731	0.151457	-0.127857	0	0	-0.265696	-0.0107826	0.201177	0.0697469	-0.342107	1.00736	0.383656	0.645756	0	0	0.0756425	-0.165828	0.109406	0.294424	1.5708	0	0
1.45	-3.04664	1.3862	-1.81612	0.788836	0.762854	0.939594	-0.450145	-0.124284	-0.323479	0.361698	0.18225	0	0	0.133991	0.0054167	-0.367442	0.183385	-0.110756	0	0	-0.263757	-0.0196504	0.201162	0.0608174	-0.341145	0.998012	0.383218	0.650331	0	0	0.0703658	-0.166599	0.112363	0.299144	1.5708	0	0
1.46	-3.01422	1.38419	-1.84586	0.786953	0.774069	0.940503	-0.436061	-0.143049	-0.32601	0.408654	0.162709	0	0	0.135201	0.0129313	-0.361397	0.209987	-0.0931005	0	0	-0.260959	-0.0263576	0.202331	0.050918	-0.34074	0.98791	0.38303	0.65495	0	0	0.065507	-0.166529	0.116102	0.30284	1.5708	0	0
1.47	-2.9873	1.38393	-1.87009	0.784868	0.785346	0.941377	-0.416666	-0.16148	-0.326641	0.460435	0.137608	0	0	0.133806	0.0209693	-0.355336	0.228083	-0.0795	0	0	-0.256047	-0.0310541	0.204505	0.040055	-0.341196	0.975454	0.383701	0.658927	0	0	0.0610167	-0.165474	0.120481	0.305672	1.5708	0	0
1.48	-2.963	1.38554	-1.89086	0.782492	0.796531	0.942138	-0.390972	-0.179721	-0.325801	0.517884	0.105654	0	0	0.130481	0.0297136	-0.352292	0.237864	-0.0703397	0	0	-0.249342	-0.0339291	0.20629	0.0290647	-0.34271	0.963585	0.38509	0.663021	0	0	0.056661	-0.163858	0.125455	0.308628	1.5708	0	0
1.49	-2.94032	1.38905	-1.9096	0.77993	0.807561	0.942706	-0.358968	-0.197381	-0.32132	0.579522	0.0655114	0	0	0.126011	0.0387164	-0.351218	0.241298	-0.062497	0	0	-0.240927	-0.0353036	0.207864	0.0182723	-0.344927	0.952647	0.38685	0.667231	0	0	0.0522911	-0.162104	0.130938	0.312314	1.5708	0	0
1.5	-2.91544	1.39637	-1.93152	0.777171	0.81866	0.942658	-0.318256	-0.215388	-0.312541	0.645845	0.0180364	0	0	0.117386	0.0496258	-0.350109	0.228354	-0.0584207	0	0	-0.227616	-0.0350497	0.210383	0.00632613	-0.347608	0.935774	0.388778	0.675174	0	0	0.0461017	-0.160577	0.140016	0.318059	1.5708	0	0
1.51	-2.8845	1.40274	-1.95981	0.774809	0.829283	0.942691	-0.274744	-0.233088	-0.298886	0.713527	-0.0369077	0	0	0.113587	0.0587766	-0.350466	0.226461	-0.0512882	0	0	-0.215811	-0.036802	0.212119	-0.00321594	-0.348457	0.919634	0.388566	0.684458	0	0	0.0414286	-0.160529	0.148758	0.323131	1.5708	0	0
1.52	-2.83691	1.40829	-2.00542	0.77298	0.839339	0.94269	-0.226886	-0.25223	-0.281248	0.783427	-0.0953664	0	0	0.116772	0.0669133	-0.35265	0.237837	-0.0400157	0	0	-0.204736	-0.0425689	0.21317	-0.0102985	-0.346803	0.901684	0.386366	0.698128	0	0	0.0370671	-0.163459	0.160711	0.330929	1.5708	0	0
1.53	-2.7822	1.41323	-2.05909	0.771239	0.849221	0.942435	-0.176454	-0.271712	-0.261058	0.85277	-0.154197	0	0	0.113669	0.0774275	-0.352321	0.235914	-0.0326993	0	0	-0.193755	-0.0493171	0.213568	-0.0158109	-0.346058	0.889763	0.385584	0.707499	0	0	0.0320193	-0.166823	0.170386	0.339386	1.5708	0	0
1.54	-2.72532	1.41622	-2.11521	0.769783	0.858828	0.942245	-0.126057	-0.289485	-0.238369	0.918582	-0.215635	0	0	0.109681	0.0877634	-0.349785	0.234757	-0.02552	0	0	-0.185101	-0.0574802	0.213001	-0.0194816	-0.344612	0.880887	0.384	0.719462	0	0	0.0260135	-0.172368	0.182912	0.352595	1.5708	0	0
1.55	-2.67442	1.41774	-2.16517	0.768538	0.868237	0.942182	-0.0772017	-0.304029	-0.214403	0.97928	-0.279202	0	0	0.104809	0.0968582	-0.345267	0.234787	-0.0180003	0	0	-0.178747	-0.0655172	0.211265	-0.0213799	-0.343135	0.878109	0.381805	0.731852	0	0	0.0199789	-0.178763	0.194427	0.366613	1.5708	0	0
